<svg width="100" height="100" viewBox="0 0 100 100" fill="none" xmlns="http://www.w3.org/2000/svg">
<path d="M30.6192 78.8496C30.6192 78.9299 30.5924 78.9888 30.5442 79.0317C30.496 79.0799 30.4318 79.1013 30.3515 79.1013H28.7933C28.7237 79.1013 28.6648 79.0745 28.6167 79.0263C28.5685 78.9781 28.531 78.9192 28.5149 78.8496L27.8349 76.0546H24.4509L23.7709 78.8496C23.7549 78.9192 23.7174 78.9781 23.6692 79.0263C23.621 79.0745 23.5621 79.1013 23.4925 79.1013H21.9344C21.8541 79.1013 21.7898 79.0799 21.7416 79.0317C21.6934 78.9888 21.6667 78.9299 21.6667 78.8496C21.6667 78.8389 21.672 78.8282 21.672 78.8229C21.6774 78.8121 21.6827 78.7961 21.6827 78.7747L24.0976 69.5437C24.1832 69.201 24.3117 68.9333 24.4777 68.7352C24.6437 68.5424 24.8258 68.3925 25.0185 68.2854C25.2059 68.1837 25.404 68.1194 25.6075 68.0873C25.8056 68.0605 25.9877 68.0445 26.1429 68.0445C26.2982 68.0445 26.4803 68.0605 26.6784 68.0873C26.8818 68.1194 27.0799 68.1837 27.2673 68.2854C27.4601 68.3925 27.6368 68.5424 27.8081 68.7352C27.9741 68.9333 28.1026 69.201 28.1883 69.5437L30.6031 78.7747C30.6031 78.7961 30.6085 78.8121 30.6085 78.8229C30.6138 78.8282 30.6192 78.8389 30.6192 78.8496ZM26.3785 70.0042C26.3571 69.9132 26.3357 69.8543 26.3036 69.8168C26.2768 69.7847 26.2232 69.7686 26.1429 69.7686C26.0626 69.7686 26.0091 69.7847 25.9823 69.8168C25.9502 69.8543 25.9288 69.9132 25.9073 70.0042L24.8472 74.3734H27.4387L26.3785 70.0042Z" fill="#828A99"/>
<path d="M37.9065 78.7051C37.9065 78.8121 37.8851 78.8871 37.8423 78.9246C37.7941 78.9621 37.7191 78.9942 37.612 79.0103C37.5049 79.0424 37.3497 79.0692 37.1462 79.0906C36.9481 79.1173 36.7285 79.1388 36.493 79.1602C36.2574 79.1816 36.0164 79.1923 35.7701 79.203C35.5238 79.2137 35.3043 79.2191 35.1062 79.2191C34.6296 79.2191 34.1799 79.1816 33.7676 79.1013C33.3553 79.021 32.9965 78.871 32.6967 78.6515C32.3915 78.432 32.1505 78.1214 31.9739 77.7306C31.7972 77.3397 31.7061 76.831 31.7061 76.1992V68.4568C31.7061 68.3765 31.7383 68.3068 31.7972 68.2479C31.8561 68.1891 31.9257 68.1623 32.0006 68.1623H33.457C33.5373 68.1623 33.6069 68.1891 33.6658 68.2479C33.7247 68.3068 33.7569 68.3765 33.7569 68.4568V76.1992C33.7569 76.6918 33.8372 77.0238 34.0032 77.2005C34.1691 77.3772 34.469 77.4682 34.9027 77.4682H37.612C37.6923 77.4682 37.7566 77.495 37.8155 77.5539C37.8744 77.6128 37.9065 77.6824 37.9065 77.7627V78.7051Z" fill="#828A99"/>
<path d="M41.3494 78.8068C41.3494 78.8871 41.3226 78.9514 41.2637 79.0103C41.2048 79.0692 41.1352 79.1013 41.0549 79.1013H39.5985C39.5182 79.1013 39.4539 79.0692 39.395 79.0103C39.3361 78.9514 39.304 78.8871 39.304 78.8068V68.4407C39.304 68.3657 39.3361 68.2961 39.395 68.2426C39.4539 68.189 39.5182 68.1623 39.5985 68.1623H41.0549C41.1352 68.1623 41.2048 68.189 41.2637 68.2426C41.3226 68.2961 41.3494 68.3657 41.3494 68.4407V78.8068Z" fill="#828A99"/>
<path d="M51.6833 78.8496C51.6833 78.9299 51.6619 78.9888 51.6137 79.0317C51.5655 79.0799 51.5013 79.1013 51.421 79.1013H49.8575C49.7932 79.1013 49.7343 79.0745 49.6862 79.0263C49.6326 78.9781 49.6005 78.9192 49.5791 78.8496L48.9044 76.0546H45.5151L44.8404 78.8496C44.819 78.9192 44.7869 78.9781 44.7387 79.0263C44.6852 79.0745 44.6263 79.1013 44.562 79.1013H42.9985C42.9236 79.1013 42.8593 79.0799 42.8058 79.0317C42.7576 78.9888 42.7362 78.9299 42.7362 78.8496C42.7362 78.8389 42.7362 78.8282 42.7415 78.8229C42.7469 78.8121 42.7469 78.7961 42.7469 78.7747L45.1617 69.5437C45.2527 69.201 45.3812 68.9333 45.5472 68.7352C45.7132 68.5424 45.8899 68.3925 46.0826 68.2854C46.2754 68.1837 46.4735 68.1194 46.6716 68.0873C46.8751 68.0605 47.0518 68.0445 47.2124 68.0445C47.3677 68.0445 47.5444 68.0605 47.7479 68.0873C47.9513 68.1194 48.1441 68.1837 48.3368 68.2854C48.5296 68.3925 48.7063 68.5424 48.8723 68.7352C49.0383 68.9333 49.1668 69.201 49.2578 69.5437L51.6726 78.7747C51.6726 78.7961 51.6726 78.8121 51.678 78.8229C51.6833 78.8282 51.6833 78.8389 51.6833 78.8496ZM47.448 70.0042C47.4266 69.9132 47.3998 69.8543 47.3731 69.8168C47.3409 69.7847 47.2874 69.7686 47.2124 69.7686C47.1321 69.7686 47.0786 69.7847 47.0464 69.8168C47.0197 69.8543 46.9929 69.9132 46.9768 70.0042L45.9167 74.3734H48.5082L47.448 70.0042Z" fill="#828A99"/>
<path d="M61.3426 78.5123C61.3426 78.6783 61.2891 78.8175 61.1767 78.9299C61.0589 79.0424 60.9196 79.1013 60.7537 79.1013H59.2651C59.0938 79.1013 58.9278 79.0799 58.7725 79.0317C58.6226 78.9888 58.4888 78.8336 58.371 78.5712L55.0994 71.4017C55.062 71.3214 55.0191 71.2839 54.9709 71.2839C54.9174 71.2839 54.896 71.3214 54.896 71.4017V78.8068C54.896 78.8871 54.8692 78.9514 54.8157 79.0103C54.7621 79.0692 54.6925 79.1013 54.6175 79.1013H53.3646C53.2843 79.1013 53.2147 79.0692 53.1558 79.0103C53.0969 78.9514 53.0701 78.8871 53.0701 78.8068V68.7513C53.0701 68.5853 53.1237 68.4461 53.2415 68.3336C53.3539 68.2212 53.4931 68.1623 53.6591 68.1623H55.2494C55.4046 68.1623 55.5331 68.1891 55.6242 68.2479C55.7152 68.3068 55.8062 68.4354 55.8972 68.6335L59.324 76.1992C59.3562 76.2795 59.3936 76.317 59.4418 76.317C59.4954 76.317 59.5168 76.2742 59.5168 76.1831V68.4407C59.5168 68.2533 59.6132 68.1623 59.7952 68.1623H61.0642C61.2516 68.1623 61.3426 68.2533 61.3426 68.4407V78.5123Z" fill="#828A99"/>
<path d="M70.0596 78.6462C70.0596 78.7532 70.0275 78.8282 69.9686 78.871C69.9097 78.9192 69.8347 78.9514 69.733 78.9835C69.6741 79.0049 69.5777 79.0263 69.4331 79.0477C69.2885 79.0745 69.1172 79.0959 68.9084 79.1227C68.7049 79.1495 68.4747 79.1709 68.2177 79.1869C67.966 79.2084 67.6929 79.2191 67.4092 79.2191C66.9701 79.2191 66.4989 79.1548 66.0117 79.0263C65.5191 78.8978 65.0746 78.6676 64.6677 78.3303C64.2608 77.9876 63.9288 77.5324 63.6611 76.9488C63.3934 76.3705 63.2595 75.6263 63.2595 74.716V72.5475C63.2595 71.6266 63.3934 70.8716 63.6611 70.288C63.9288 69.7043 64.2608 69.2439 64.6677 68.9119C65.0746 68.5799 65.5191 68.3497 66.0117 68.2265C66.4989 68.1034 66.9701 68.0445 67.4092 68.0445C67.6929 68.0445 67.966 68.0552 68.2177 68.0713C68.4747 68.0927 68.7049 68.1141 68.9084 68.1409C69.1172 68.1623 69.2885 68.189 69.4331 68.2212C69.5777 68.2479 69.6741 68.2694 69.733 68.2801C69.8347 68.3068 69.9097 68.3443 69.9686 68.3925C70.0275 68.4354 70.0596 68.5103 70.0596 68.6174V69.6026C70.0596 69.6936 70.0382 69.7686 69.9953 69.8275C69.9471 69.8864 69.8722 69.9132 69.7651 69.9132H69.733C69.6098 69.9025 69.4545 69.8917 69.2725 69.8757C69.0904 69.865 68.8977 69.8489 68.6889 69.8382C68.4854 69.8328 68.2712 69.8221 68.057 69.8114C67.8429 69.8007 67.634 69.7954 67.4359 69.7954C67.1254 69.7954 66.8362 69.8436 66.5792 69.9346C66.3169 70.031 66.092 70.1809 65.9099 70.3951C65.7225 70.6039 65.5726 70.8877 65.4655 71.241C65.3584 71.5944 65.3049 72.0281 65.3049 72.5475V74.716C65.3049 75.2247 65.3584 75.6531 65.4655 76.0065C65.5726 76.3598 65.7225 76.649 65.9099 76.8631C66.092 77.0773 66.3169 77.2326 66.5792 77.329C66.8362 77.42 67.1254 77.4682 67.4359 77.4682C67.634 77.4682 67.8429 77.4628 68.057 77.4521C68.2712 77.4414 68.4854 77.4307 68.6889 77.42C68.8977 77.4147 69.0904 77.3986 69.2725 77.3879C69.4545 77.3718 69.6098 77.3611 69.733 77.3504H69.7651C69.8722 77.3504 69.9471 77.3772 69.9953 77.4361C70.0382 77.495 70.0596 77.5699 70.0596 77.6556V78.6462Z" fill="#828A99"/>
<path d="M78.3482 78.7051C78.3482 78.8121 78.3267 78.8871 78.2839 78.9246C78.2357 78.9621 78.1608 78.9942 78.0537 79.0103C77.9359 79.0317 77.8074 79.0531 77.6628 79.0799C77.5182 79.1013 77.3415 79.1227 77.1327 79.1441C76.9239 79.1655 76.6669 79.1816 76.367 79.1977C76.0672 79.2137 75.6977 79.2191 75.2533 79.2191C74.7768 79.2191 74.327 79.1816 73.9147 79.1013C73.5024 79.021 73.1384 78.871 72.8332 78.6515C72.528 78.432 72.287 78.1214 72.1103 77.7306C71.9283 77.3397 71.8426 76.831 71.8426 76.1992V71.0644C71.8426 70.4325 71.9283 69.9239 72.1103 69.533C72.287 69.1368 72.528 68.8316 72.8332 68.612C73.1384 68.3925 73.5024 68.2426 73.9147 68.1623C74.327 68.082 74.7768 68.0445 75.2533 68.0445C75.6977 68.0445 76.0672 68.0498 76.367 68.0659C76.6669 68.082 76.9239 68.098 77.1327 68.1194C77.3415 68.1355 77.5182 68.1623 77.6628 68.1837C77.8074 68.2105 77.9359 68.2319 78.0537 68.2479C78.1608 68.2694 78.2357 68.3015 78.2839 68.339C78.3267 68.3765 78.3482 68.4514 78.3482 68.5585V69.5009C78.3482 69.5812 78.316 69.6508 78.2571 69.7097C78.1982 69.7686 78.134 69.7954 78.0537 69.7954H75.0499C74.6162 69.7954 74.3163 69.8864 74.145 70.0631C73.9736 70.2398 73.888 70.5717 73.888 71.0644V72.6546H77.877C77.9573 72.6546 78.0215 72.6814 78.0804 72.7403C78.1393 72.7992 78.1715 72.8688 78.1715 72.9491V74.0093C78.1715 74.0842 78.1393 74.1538 78.0804 74.2127C78.0215 74.2716 77.9573 74.3038 77.877 74.3038H73.888V76.1992C73.888 76.6918 73.9736 77.0238 74.145 77.2005C74.3163 77.3772 74.6162 77.4682 75.0499 77.4682H78.0537C78.134 77.4682 78.1982 77.495 78.2571 77.5539C78.316 77.6128 78.3482 77.6824 78.3482 77.7627V78.7051Z" fill="#828A99"/>
<path d="M27.1388 84.0166C27.1388 84.4289 27.0639 84.7769 26.9193 85.0554C26.7694 85.3391 26.5713 85.564 26.325 85.7407C26.0733 85.9121 25.7895 86.0299 25.4629 86.1048C25.1363 86.1744 24.7936 86.2119 24.4295 86.2119C24.301 86.2119 24.1565 86.2066 23.9958 86.1958C23.8298 86.1905 23.696 86.1798 23.5889 86.1744V88.6267C23.5889 88.6749 23.5728 88.7178 23.5407 88.7552C23.5032 88.7927 23.4604 88.8141 23.4122 88.8141H22.4752C22.4216 88.8141 22.3788 88.7927 22.3413 88.7552C22.3038 88.7178 22.2824 88.6749 22.2824 88.6267V82.164C22.2824 82.073 22.3092 82.0034 22.3627 81.9659C22.4163 81.923 22.4912 81.8963 22.5876 81.8856C22.8286 81.8481 23.1123 81.816 23.4336 81.7945C23.7549 81.7731 24.0868 81.7624 24.4295 81.7624C24.7936 81.7624 25.1363 81.7945 25.4629 81.8641C25.7895 81.9338 26.0787 82.0515 26.325 82.2229C26.5713 82.3889 26.7694 82.6138 26.9193 82.8922C27.0639 83.1706 27.1388 83.5186 27.1388 83.9309V84.0166ZM25.8324 83.9256C25.8324 83.5294 25.7146 83.2509 25.479 83.0849C25.2487 82.9136 24.8954 82.8333 24.4242 82.8333C24.376 82.8333 24.3117 82.8333 24.2314 82.8386C24.1565 82.8386 24.0761 82.844 23.9958 82.8494C23.9101 82.8494 23.8352 82.8547 23.7656 82.8547C23.6906 82.8601 23.6317 82.8654 23.5889 82.8708V85.1143C23.6264 85.1143 23.6853 85.1143 23.7656 85.1196C23.8405 85.1196 23.9209 85.125 24.0065 85.1303C24.0922 85.1303 24.1725 85.1357 24.2528 85.1357C24.3278 85.141 24.3867 85.141 24.4242 85.141C24.9328 85.141 25.2916 85.05 25.5111 84.8573C25.7253 84.6698 25.8324 84.3861 25.8324 84.0113V83.9256Z" fill="#828A99"/>
<path d="M33.2321 88.7017C33.2321 88.7767 33.1947 88.8141 33.1197 88.8141H31.9739C31.9257 88.8141 31.8828 88.7927 31.8614 88.7552C31.8346 88.7178 31.8079 88.6749 31.7864 88.6267L30.4318 86.1262H30.3033C30.1748 86.1262 30.0356 86.1209 29.8696 86.1155C29.7089 86.1048 29.5751 86.0941 29.468 86.0888V88.6267C29.468 88.6749 29.4466 88.7178 29.4145 88.7552C29.3823 88.7927 29.3395 88.8141 29.286 88.8141H28.3489C28.3007 88.8141 28.2579 88.7927 28.2204 88.7552C28.1829 88.7178 28.1615 88.6749 28.1615 88.6267V82.164C28.1615 82.073 28.1883 82.0034 28.2418 81.9659C28.2954 81.923 28.3704 81.8963 28.4614 81.8856C28.7077 81.8481 28.9915 81.816 29.3074 81.7945C29.6286 81.7731 29.9606 81.7624 30.3086 81.7624C30.6674 81.7624 31.0154 81.7999 31.342 81.8695C31.6687 81.9445 31.9524 82.0623 32.1987 82.2229C32.4504 82.3835 32.6485 82.603 32.7931 82.8761C32.943 83.1492 33.0126 83.4812 33.0126 83.8827V83.9684C33.0126 84.4717 32.9002 84.8733 32.6699 85.1892C32.4397 85.4998 32.1291 85.7354 31.7383 85.8853L33.2107 88.6267C33.2268 88.6428 33.2321 88.6696 33.2321 88.7017ZM31.7115 83.8827C31.7115 83.5294 31.5937 83.2724 31.3581 83.1171C31.1225 82.9564 30.7691 82.8815 30.3033 82.8815C30.2497 82.8815 30.1855 82.8815 30.1105 82.8868C30.0302 82.8868 29.9499 82.8922 29.8696 82.8922C29.7893 82.8975 29.7143 82.8975 29.6393 82.9029C29.5697 82.9083 29.5108 82.9136 29.468 82.919V85.0286C29.5055 85.0286 29.5644 85.0286 29.6393 85.0339C29.7197 85.0393 29.8 85.0393 29.8856 85.0446C29.9713 85.0446 30.0516 85.05 30.1266 85.0554C30.2069 85.0554 30.2658 85.0554 30.3033 85.0554C30.7905 85.0554 31.1493 84.9804 31.3742 84.8251C31.599 84.6645 31.7115 84.3807 31.7115 83.9684V83.8827Z" fill="#828A99"/>
<path d="M39.2558 85.9603C39.2558 86.4796 39.1916 86.924 39.0577 87.2935C38.9185 87.6629 38.7364 87.9628 38.5008 88.1984C38.2599 88.434 37.9815 88.6053 37.6549 88.7178C37.3282 88.8302 36.9748 88.8891 36.584 88.8891C36.1985 88.8891 35.8451 88.8302 35.5185 88.7178C35.1918 88.6053 34.9134 88.434 34.6725 88.1984C34.4369 87.9628 34.2548 87.6629 34.1156 87.2935C33.9817 86.924 33.9175 86.4796 33.9175 85.9603V84.6913C33.9175 84.1772 33.9817 83.7328 34.1156 83.3634C34.2548 82.9886 34.4369 82.6887 34.6725 82.4531C34.9134 82.2175 35.1918 82.0462 35.5185 81.9338C35.8451 81.8213 36.1985 81.7624 36.584 81.7624C36.9748 81.7624 37.3282 81.8213 37.6549 81.9338C37.9815 82.0462 38.2599 82.2175 38.5008 82.4531C38.7364 82.6887 38.9185 82.9886 39.0577 83.3634C39.1916 83.7328 39.2558 84.1772 39.2558 84.6913V85.9603ZM37.9547 84.6913C37.9547 84.0648 37.8423 83.6097 37.6174 83.3259C37.3978 83.0421 37.0498 82.8975 36.584 82.8975C36.1235 82.8975 35.7755 83.0421 35.5559 83.3259C35.331 83.6097 35.2186 84.0648 35.2186 84.6913V85.9603C35.2186 86.5867 35.331 87.0418 35.5559 87.3256C35.7755 87.6094 36.1235 87.754 36.584 87.754C37.0498 87.754 37.3978 87.6094 37.6174 87.3256C37.8423 87.0418 37.9547 86.5867 37.9547 85.9603V84.6913Z" fill="#828A99"/>
<path d="M45.5365 86.0138C45.5365 86.9455 45.2848 87.6576 44.7708 88.1502C44.2622 88.6428 43.534 88.8891 42.5862 88.8891C42.4149 88.8891 42.2382 88.8837 42.0508 88.8784C41.8688 88.873 41.6867 88.8623 41.5154 88.8516C41.344 88.8356 41.1887 88.8248 41.0495 88.8141C40.905 88.7981 40.7979 88.7874 40.7336 88.7767C40.648 88.7606 40.5891 88.7338 40.5462 88.691C40.5087 88.6481 40.4873 88.5785 40.4873 88.4822V82.164C40.4873 82.073 40.5087 82.0034 40.5462 81.9605C40.5891 81.9177 40.648 81.8856 40.7336 81.8749C40.7979 81.8641 40.905 81.8481 41.0495 81.8374C41.1887 81.8267 41.344 81.8106 41.5154 81.7999C41.6867 81.7892 41.8688 81.7785 42.0508 81.7731C42.2382 81.7678 42.4149 81.7624 42.5862 81.7624C43.534 81.7624 44.2622 82.0087 44.7708 82.5013C45.2848 82.9886 45.5365 83.7007 45.5365 84.6377V86.0138ZM44.2354 84.6377C44.2354 84.2897 44.1926 83.9952 44.1069 83.7703C44.0212 83.5401 43.9034 83.358 43.7588 83.2242C43.6089 83.0903 43.4376 82.9939 43.2341 82.9404C43.0307 82.8868 42.8111 82.8601 42.5809 82.8601C42.4042 82.8601 42.2543 82.8654 42.1311 82.8708C42.0026 82.8761 41.8902 82.8815 41.7938 82.8868V87.77C41.8902 87.7754 42.0026 87.7807 42.1311 87.7915C42.2543 87.7968 42.4042 87.7968 42.5809 87.7968C42.8111 87.7968 43.0307 87.77 43.2341 87.7165C43.4376 87.6683 43.6089 87.5719 43.7588 87.4381C43.9034 87.2988 44.0212 87.1221 44.1069 86.8919C44.1926 86.6617 44.2354 86.3725 44.2354 86.0192V84.6377Z" fill="#828A99"/>
<path d="M51.8654 86.2333C51.8654 86.7313 51.8011 87.1489 51.6726 87.4862C51.5441 87.8289 51.3674 88.0966 51.1372 88.3055C50.907 88.5143 50.6339 88.6589 50.318 88.7499C50.0021 88.8409 49.6594 88.8891 49.2846 88.8891C48.9098 88.8891 48.5617 88.8409 48.2458 88.7499C47.9299 88.6589 47.6568 88.5143 47.4266 88.3055C47.2017 88.0966 47.025 87.8289 46.8965 87.4862C46.768 87.1489 46.7038 86.7313 46.7038 86.2333V82.0141C46.7038 81.9659 46.7198 81.923 46.7573 81.8909C46.7948 81.8534 46.8376 81.8374 46.8912 81.8374H47.8175C47.871 81.8374 47.9139 81.8534 47.9513 81.8909C47.9888 81.923 48.0049 81.9659 48.0049 82.0141V86.2387C48.0049 86.5064 48.0263 86.742 48.0638 86.9401C48.1013 87.1329 48.1655 87.2988 48.2672 87.4327C48.3636 87.5666 48.4921 87.6629 48.6528 87.7218C48.8187 87.7861 49.0276 87.8182 49.2846 87.8182C49.5309 87.8182 49.7397 87.7861 49.9057 87.7218C50.0717 87.6629 50.2055 87.5666 50.3019 87.4327C50.3983 87.2988 50.4679 87.1329 50.5054 86.9401C50.5429 86.742 50.5589 86.5064 50.5589 86.2387V82.0141C50.5589 81.9659 50.5803 81.923 50.6178 81.8909C50.6553 81.8534 50.6981 81.8374 50.7463 81.8374H51.678C51.7262 81.8374 51.769 81.8534 51.8065 81.8909C51.844 81.923 51.8654 81.9659 51.8654 82.0141V86.2333Z" fill="#828A99"/>
<path d="M57.375 88.5196C57.375 88.5893 57.359 88.6374 57.3215 88.6696C57.284 88.6963 57.2305 88.7178 57.1662 88.7392C57.1287 88.7499 57.0645 88.7659 56.9788 88.782C56.8878 88.7981 56.7754 88.8088 56.6415 88.8248C56.513 88.8409 56.3631 88.857 56.2024 88.8677C56.0418 88.8837 55.8651 88.8891 55.6831 88.8891C55.4046 88.8891 55.1048 88.8463 54.7942 88.7659C54.4783 88.6856 54.1945 88.5357 53.9375 88.3215C53.6805 88.102 53.4663 87.8129 53.295 87.4434C53.1237 87.074 53.038 86.5974 53.038 86.0138V84.6377C53.038 84.0487 53.1237 83.5668 53.295 83.192C53.4663 82.8226 53.6805 82.5281 53.9375 82.3139C54.1945 82.1051 54.4783 81.9605 54.7942 81.8802C55.1048 81.7999 55.4046 81.7624 55.6831 81.7624C55.8651 81.7624 56.0418 81.7678 56.2024 81.7838C56.3631 81.7945 56.513 81.8106 56.6415 81.8213C56.7754 81.8374 56.8878 81.8588 56.9788 81.8749C57.0645 81.8963 57.1287 81.907 57.1662 81.9123C57.2305 81.9338 57.284 81.9552 57.3215 81.9819C57.359 82.0087 57.375 82.0623 57.375 82.1265V82.7583C57.375 82.8119 57.359 82.8601 57.3322 82.8975C57.3054 82.935 57.2572 82.9564 57.1876 82.9564H57.1662C57.0859 82.9511 56.9895 82.9404 56.8717 82.9297C56.7593 82.9243 56.6361 82.9136 56.5023 82.9083C56.3684 82.9029 56.2346 82.8975 56.1007 82.8868C55.9615 82.8815 55.8276 82.8815 55.7045 82.8815C55.5064 82.8815 55.319 82.9083 55.153 82.9672C54.987 83.0261 54.8478 83.1278 54.73 83.2616C54.6068 83.3955 54.5158 83.5722 54.4462 83.7971C54.3766 84.0273 54.3445 84.3057 54.3445 84.6377V86.0138C54.3445 86.3404 54.3766 86.6135 54.4462 86.8437C54.5158 87.0686 54.6068 87.2507 54.73 87.3845C54.8478 87.5237 54.987 87.6201 55.153 87.679C55.319 87.7433 55.5064 87.77 55.7045 87.77C55.8276 87.77 55.9615 87.7647 56.1007 87.7593C56.2346 87.754 56.3684 87.7486 56.5023 87.7433C56.6361 87.7379 56.7593 87.7272 56.8717 87.7165C56.9895 87.7111 57.0859 87.7004 57.1662 87.6951H57.1876C57.2572 87.6951 57.3054 87.7165 57.3322 87.754C57.359 87.7914 57.375 87.8343 57.375 87.8932V88.5196Z" fill="#828A99"/>
<path d="M63.0079 82.7583C63.0079 82.8065 62.9864 82.8494 62.949 82.8815C62.9115 82.9136 62.8686 82.9243 62.8205 82.9243H61.1767V88.6267C61.1767 88.6749 61.1606 88.7178 61.1231 88.7552C61.0856 88.7927 61.0374 88.8141 60.9893 88.8141H60.0576C60.0094 88.8141 59.9666 88.7927 59.9291 88.7552C59.8916 88.7178 59.8702 88.6749 59.8702 88.6267V82.9243H58.2317C58.1782 82.9243 58.1354 82.9136 58.0979 82.8815C58.0604 82.8494 58.0443 82.8065 58.0443 82.7583V82.0141C58.0443 81.9659 58.0604 81.923 58.0979 81.8909C58.1354 81.8534 58.1782 81.8374 58.2317 81.8374H62.8205C62.8686 81.8374 62.9115 81.8534 62.949 81.8909C62.9864 81.923 63.0079 81.9659 63.0079 82.0141V82.7583Z" fill="#828A99"/>
<path d="M65.2513 88.6267C65.2513 88.6749 65.2299 88.7178 65.1924 88.7552C65.155 88.7927 65.1121 88.8141 65.0639 88.8141H64.1323C64.0841 88.8141 64.0413 88.7927 64.0038 88.7552C63.9663 88.7178 63.9449 88.6749 63.9449 88.6267V82.0141C63.9449 81.9659 63.9663 81.923 64.0038 81.8909C64.0413 81.8534 64.0841 81.8374 64.1323 81.8374H65.0639C65.1121 81.8374 65.155 81.8534 65.1924 81.8909C65.2299 81.923 65.2513 81.9659 65.2513 82.0141V88.6267Z" fill="#828A99"/>
<path d="M71.8105 85.9603C71.8105 86.4796 71.7462 86.924 71.6124 87.2935C71.4785 87.6629 71.2911 87.9628 71.0555 88.1984C70.8145 88.434 70.5361 88.6053 70.2095 88.7178C69.8829 88.8302 69.5295 88.8891 69.144 88.8891C68.7531 88.8891 68.3997 88.8302 68.0731 88.7178C67.7518 88.6053 67.4681 88.434 67.2325 88.1984C66.9915 87.9628 66.8095 87.6629 66.6756 87.2935C66.5417 86.924 66.4721 86.4796 66.4721 85.9603V84.6913C66.4721 84.1772 66.5417 83.7328 66.6756 83.3634C66.8095 82.9886 66.9915 82.6887 67.2325 82.4531C67.4681 82.2175 67.7518 82.0462 68.0731 81.9338C68.3997 81.8213 68.7531 81.7624 69.144 81.7624C69.5295 81.7624 69.8829 81.8213 70.2095 81.9338C70.5361 82.0462 70.8145 82.2175 71.0555 82.4531C71.2911 82.6887 71.4785 82.9886 71.6124 83.3634C71.7462 83.7328 71.8105 84.1772 71.8105 84.6913V85.9603ZM70.5093 84.6913C70.5093 84.0648 70.3969 83.6097 70.172 83.3259C69.9525 83.0421 69.6045 82.8975 69.144 82.8975C68.6781 82.8975 68.3355 83.0421 68.1106 83.3259C67.8857 83.6097 67.7786 84.0648 67.7786 84.6913V85.9603C67.7786 86.5867 67.8857 87.0418 68.1106 87.3256C68.3355 87.6094 68.6781 87.754 69.144 87.754C69.6045 87.754 69.9525 87.6094 70.172 87.3256C70.3969 87.0418 70.5093 86.5867 70.5093 85.9603V84.6913Z" fill="#828A99"/>
<path d="M78.316 88.4393C78.316 88.5411 78.2839 88.6321 78.2089 88.707C78.1393 88.7767 78.0483 88.8141 77.9412 88.8141H76.9935C76.8811 88.8141 76.7793 88.7981 76.683 88.7713C76.5812 88.7445 76.4955 88.6428 76.4206 88.4768L74.3377 83.9042C74.311 83.8506 74.2842 83.8292 74.2521 83.8292C74.2199 83.8292 74.2092 83.8506 74.2092 83.9042V88.6267C74.2092 88.6749 74.1878 88.7178 74.1557 88.7552C74.1182 88.7927 74.0807 88.8141 74.0272 88.8141H73.2294C73.1812 88.8141 73.1384 88.7927 73.1009 88.7552C73.0634 88.7178 73.042 88.6749 73.042 88.6267V82.2122C73.042 82.1051 73.0795 82.0194 73.1491 81.9445C73.224 81.8749 73.3097 81.8374 73.4168 81.8374H74.4341C74.5305 81.8374 74.6108 81.8588 74.6697 81.8963C74.7286 81.9338 74.7875 82.0141 74.8464 82.1372L77.031 86.9615C77.0524 87.0151 77.0738 87.0365 77.1059 87.0365C77.1381 87.0365 77.1541 87.0097 77.1541 86.9562V82.0141C77.1541 81.8963 77.213 81.8374 77.3308 81.8374H78.1393C78.2571 81.8374 78.316 81.8963 78.316 82.0141V88.4393Z" fill="#828A99"/>
<path fill-rule="evenodd" clip-rule="evenodd" d="M49.9699 16.5996C52.54 16.5996 54.9923 17.1029 57.2305 18.0185V35.5648C57.2305 39.5431 54.0071 42.7664 50.0288 42.7664C48.3368 42.7664 46.7841 42.1828 45.5526 41.2083V47.5854C46.9447 48.1048 48.4546 48.3885 50.0288 48.3885C57.8516 48.3885 62.8794 42.2096 62.8794 34.7188V14.763C59.1259 12.4499 54.7032 11.1113 49.9699 11.1113C36.3537 11.1113 25.3184 22.1467 25.3184 35.7629C25.3184 43.5375 28.9165 50.4714 34.5386 54.9905V47.1356C32.1934 43.9551 30.8012 40.0196 30.8012 35.7629C30.8012 25.1773 39.3843 16.5996 49.9699 16.5996Z" fill="#828A99"/>
<path fill-rule="evenodd" clip-rule="evenodd" d="M50.0449 54.9423C47.4748 54.9423 45.0225 54.439 42.7844 53.518V35.9717C42.7844 31.9988 46.0077 28.7701 49.986 28.7701C51.678 28.7701 53.2308 29.3537 54.4623 30.3336V23.9565C53.0701 23.4371 51.5602 23.1533 49.986 23.1533C42.1632 23.1533 37.1301 29.3269 37.1301 36.8231V56.7789C40.8889 59.092 45.3116 60.4306 50.0449 60.4306C63.6611 60.4306 74.6965 49.3898 74.6965 35.779C74.6965 28.0044 71.0983 21.0705 65.4709 16.5514V24.4063C67.8214 27.5868 69.2082 31.5222 69.2082 35.779C69.2082 46.3646 60.6305 54.9423 50.0449 54.9423Z" fill="#828A99"/>
</svg>
